# xmcd CD database file
#
# Track frame offsets:
#	187
#	19350
#	38700
#	54470
#	85437
#	104687
#	118537
#	133957
#	157912
#
# Disc length: 2211 seconds
#
# Revision: 1
# Processed by: cddbd v1.5.2PL0 Copyright (c) Steve Scherf et al.
# Submitted via: CDex 1.70beta2
#
DISCID=7808a109
DTITLE=Silver Mountain - Universe
DYEAR=1985
DGENRE=Melodic Power Metal
TTITLE0=Shakin' Brains
TTITLE1=Universe
TTITLE2=Call Of The Lords
TTITLE3=Handled Roughly
TTITLE4=Why
TTITLE5=Help Me
TTITLE6=Walking In The Shadow
TTITLE7=Too Late
TTITLE8=Niagara
EXTD=YEAR: 1985
EXTT0=
EXTT1=
EXTT2=
EXTT3=
EXTT4=
EXTT5=
EXTT6=
EXTT7=
EXTT8=
PLAYORDER=
